<?xml version="1.0" standalone="no"?>
<!DOCTYPE svg PUBLIC "-//W3C//DTD SVG 20010904//EN" "http://www.w3.org/TR/2001/REC-SVG-20010904/DTD/svg10.dtd">
<svg version="1.0" xmlns="http://www.w3.org/2000/svg" width="1197.000000pt" height="1197.000000pt" viewBox="0 0 1197.000000 1197.000000" preserveAspectRatio="xMidYMid meet">
  <g transform="translate(0.000000,1197.000000) scale(0.100000,-0.100000)" fill="#000000" stroke="none">
    <path d="M4795 10974 c-850 -109 -1527 -755 -1685 -1609 -25 -134 -33 -393
-17 -552 31 -317 173 -679 373 -950 75 -102 94 -123 204 -233 79 -79 288 -250
305 -250 2 0 28 -15 57 -34 182 -116 436 -207 723 -260 151 -28 470 -23 635 9
14 3 34 7 45 9 148 28 393 117 535 194 442 238 779 640 934 1115 25 73 47 147
49 163 3 16 13 65 21 109 20 97 31 227 30 355 0 91 -12 258 -19 270 -1 3 -6
25 -9 50 -7 49 -7 53 -31 150 -38 157 -157 438 -229 543 -14 21 -26 40 -26 43
0 3 -32 48 -72 102 -86 115 -283 315 -388 393 -270 202 -610 341 -940 385 -91
12 -392 11 -495 -2z" />
    <path d="M10498 9245 c-1 -1 -29 -6 -61 -9 -156 -18 -415 -125 -552 -227 -38
-29 -711 -694 -1495 -1478 l-1425 -1426 -115 -44 c-63 -25 -133 -52 -155 -62
-96 -40 -303 -112 -440 -154 -97 -30 -347 -95 -415 -109 -14 -3 -36 -7 -50
-11 -35 -7 -179 -34 -215 -39 -16 -2 -48 -7 -70 -11 -125 -19 -300 -29 -475
-29 -321 0 -578 36 -920 125 -293 77 -545 174 -889 341 l-163 80 -443 443
c-510 510 -558 551 -745 638 -178 84 -333 118 -530 117 -162 -1 -270 -19 -418
-72 -185 -65 -316 -150 -481 -311 -201 -198 -298 -343 -376 -567 -39 -111 -58
-237 -59 -385 0 -265 62 -476 209 -701 68 -104 -86 52 2177 -2215 1995 -2000
1915 -1922 2113 -2021 192 -96 315 -123 555 -122 153 0 189 4 284 27 60 14
114 23 120 20 6 -3 8 -2 4 2 -10 11 121 66 136 58 6 -3 8 -2 4 2 -5 5 26 27
67 49 97 54 209 143 319 256 65 66 92 87 98 78 7 -10 8 -10 7 2 -3 32 1 42 17
36 8 -3 13 -2 10 3 -6 9 90 111 104 111 5 0 12 9 15 21 4 13 12 18 21 15 8 -3
12 -2 9 4 -6 10 85 106 98 102 4 -1 7 5 7 13 0 8 7 15 15 15 8 0 15 5 15 11 0
6 1014 1025 2253 2265 3274 3279 2998 2999 3089 3129 40 58 120 219 142 286
73 226 87 464 39 669 -60 260 -163 446 -351 636 -168 171 -230 221 -373 297
-74 40 -233 101 -293 113 -12 2 -34 7 -51 10 -16 4 -41 9 -55 11 -31 5 -307
13 -312 8z" />
    <path d="M6367 1729 c7 -7 15 -10 18 -7 3 3 -2 9 -12 12 -14 6 -15 5 -6 -5z" />
    <path d="M5705 1090 c-3 -6 1 -7 9 -4 18 7 21 14 7 14 -6 0 -13 -4 -16 -10z" />
  </g>
</svg>